<?xml version="1.0" encoding="utf-8"?>
<!-- Generator: Adobe Illustrator 15.1.0, SVG Export Plug-In  -->
<!DOCTYPE svg PUBLIC "-//W3C//DTD SVG 1.1//EN" "http://www.w3.org/Graphics/SVG/1.1/DTD/svg11.dtd" [
	<!ENTITY ns_flows "http://ns.adobe.com/Flows/1.0/">
]>
<svg version="1.1"
	 xmlns="http://www.w3.org/2000/svg" xmlns:xlink="http://www.w3.org/1999/xlink" xmlns:a="http://ns.adobe.com/AdobeSVGViewerExtensions/3.0/"
	 x="0px" y="0px" width="201px" height="125px" viewBox="-0.811 -1.762 201 125" enable-background="new -0.811 -1.762 201 125"
	 xml:space="preserve">
<defs>
</defs>
<path fill="#EDEDED" d="M110.255,61.927l-8.911-3.512c0.272-5.333-0.396-10.752-2.073-16.006l7.717-5.666
	c1.363-0.918,1.69-2.912,0.747-4.555l-4.931-8.576c-0.943-1.64-2.832-2.361-4.309-1.645l-8.781,3.815
	c-3.693-4.094-8.041-7.398-12.786-9.845l1.449-9.47c0.316-1.612-0.863-3.254-2.691-3.747l-9.551-2.579
	c-1.827-0.493-3.672,0.332-4.211,1.884l-3.513,8.913c-5.332-0.273-10.751,0.394-16.003,2.071L36.74,5.295
	c-0.917-1.363-2.912-1.69-4.553-0.749l-8.577,4.931c-1.642,0.944-2.362,2.831-1.646,4.311l3.816,8.782
	c-4.093,3.694-7.397,8.041-9.845,12.786l-9.469-1.452c-1.611-0.314-3.254,0.866-3.746,2.693l-2.579,9.55
	c-0.494,1.828,0.331,3.674,1.883,4.213l8.913,3.514c-0.273,5.331,0.394,10.752,2.072,16.003l-7.717,5.667
	c-1.363,0.918-1.69,2.912-0.747,4.554l4.93,8.575c0.944,1.644,2.832,2.363,4.311,1.646l8.781-3.815
	c3.693,4.092,8.041,7.397,12.786,9.846l-1.45,9.468c-0.315,1.612,0.864,3.255,2.692,3.748l9.55,2.578
	c1.828,0.493,3.673-0.333,4.212-1.885l3.512-8.911c5.332,0.272,10.752-0.395,16.003-2.071l5.668,7.716
	c0.917,1.363,2.911,1.69,4.552,0.747l8.576-4.93c1.642-0.943,2.362-2.832,1.646-4.311l-3.817-8.78
	c4.093-3.695,7.397-8.042,9.846-12.787l9.468,1.45c1.613,0.314,3.254-0.864,3.748-2.692l2.579-9.549
	C112.633,64.311,111.807,62.466,110.255,61.927z M63.967,69.757c-7.519,4.323-17.118,1.73-21.439-5.788
	c-4.322-7.52-1.731-17.118,5.788-21.44c7.518-4.323,17.118-1.731,21.439,5.789C74.077,55.837,71.486,65.435,63.967,69.757z"/>
<path fill="#F2F2F2" d="M189.81,83.258l-5.416-0.559c-0.666-2.961-1.862-5.824-3.583-8.442l3.355-4.282
	c0.606-0.712,0.48-1.854-0.287-2.606l-4.012-3.94c-0.768-0.753-1.911-0.859-2.611-0.241l-4.221,3.433
	c-2.649-1.674-5.534-2.818-8.507-3.433l-0.655-5.404c-0.074-0.932-0.971-1.649-2.047-1.64l-5.622,0.051
	c-1.076,0.011-1.959,0.745-2.017,1.676l-0.559,5.415c-2.959,0.667-5.824,1.861-8.442,3.584l-4.283-3.356
	c-0.711-0.605-1.853-0.479-2.606,0.289l-3.939,4.01c-0.754,0.768-0.86,1.911-0.241,2.611l3.433,4.221
	c-1.675,2.65-2.819,5.535-3.432,8.507l-5.404,0.656c-0.931,0.072-1.648,0.971-1.639,2.046l0.051,5.622
	c0.009,1.076,0.743,1.959,1.675,2.017l5.415,0.56c0.667,2.96,1.863,5.824,3.584,8.442l-3.356,4.282
	c-0.606,0.711-0.479,1.853,0.287,2.607l4.011,3.939c0.768,0.755,1.912,0.859,2.612,0.24l4.222-3.433
	c2.647,1.675,5.532,2.819,8.505,3.432l0.655,5.405c0.075,0.931,0.971,1.649,2.048,1.639l5.621-0.05
	c1.077-0.01,1.96-0.744,2.017-1.676l0.559-5.415c2.959-0.668,5.825-1.862,8.441-3.583l4.285,3.354
	c0.71,0.607,1.852,0.481,2.605-0.287l3.939-4.01c0.754-0.77,0.86-1.912,0.241-2.612l-3.432-4.222
	c1.674-2.648,2.817-5.533,3.43-8.505l5.404-0.655c0.932-0.075,1.649-0.972,1.641-2.048l-0.051-5.621
	C191.476,84.199,190.742,83.316,189.81,83.258z M165.673,94.629c-3.454,3.516-9.104,3.566-12.622,0.113
	c-3.516-3.454-3.567-9.105-0.113-12.622c3.454-3.516,9.104-3.566,12.621-0.112C169.076,85.462,169.126,91.112,165.673,94.629z"/>
</svg>
