<?xml version="1.0" encoding="utf-8"?>
<!-- Generator: Adobe Illustrator 15.1.0, SVG Export Plug-In  -->
<!DOCTYPE svg PUBLIC "-//W3C//DTD SVG 1.1//EN" "http://www.w3.org/Graphics/SVG/1.1/DTD/svg11.dtd" [
	<!ENTITY ns_flows "http://ns.adobe.com/Flows/1.0/">
]>
<svg version="1.1"
	 xmlns="http://www.w3.org/2000/svg" xmlns:xlink="http://www.w3.org/1999/xlink" xmlns:a="http://ns.adobe.com/AdobeSVGViewerExtensions/3.0/"
	 x="0px" y="0px" width="375px" height="375px" viewBox="0 0 375 375" enable-background="new 0 0 375 375" xml:space="preserve">
<defs>
</defs>
<path fill="#333333" d="M354.167,166.667c-11.506,0-20.834,9.328-20.834,20.833v125c0,11.506-9.327,20.834-20.833,20.834h-250
	c-11.506,0-20.833-9.328-20.833-20.834v-250c0-11.506,9.328-20.833,20.833-20.833h125c11.506,0,20.834-9.327,20.834-20.833
	C208.334,9.327,199.006,0,187.5,0h-125C27.982,0,0,27.982,0,62.5v250C0,347.018,27.982,375,62.5,375h250
	c34.518,0,62.5-27.982,62.5-62.5v-125C375,175.994,365.673,166.667,354.167,166.667z"/>
<path fill="#333333" d="M270.833,41.667h32.917L172.708,172.5c-8.169,8.103-8.224,21.293-0.121,29.463
	c0.04,0.04,0.081,0.08,0.121,0.121c8.103,8.168,21.293,8.223,29.462,0.12c0.04-0.04,0.081-0.08,0.12-0.12L333.333,71.25v32.917
	c0,11.506,9.328,20.833,20.834,20.833S375,115.673,375,104.167V20.833C375,9.327,365.673,0,354.167,0h-83.334
	C259.327,0,250,9.327,250,20.833C250,32.339,259.327,41.667,270.833,41.667z"/>
</svg>
