<?xml version="1.0" encoding="utf-8"?>
<!-- Generator: Adobe Illustrator 15.1.0, SVG Export Plug-In  -->
<!DOCTYPE svg PUBLIC "-//W3C//DTD SVG 1.1//EN" "http://www.w3.org/Graphics/SVG/1.1/DTD/svg11.dtd" [
	<!ENTITY ns_flows "http://ns.adobe.com/Flows/1.0/">
]>
<svg version="1.1"
	 xmlns="http://www.w3.org/2000/svg" xmlns:xlink="http://www.w3.org/1999/xlink" xmlns:a="http://ns.adobe.com/AdobeSVGViewerExtensions/3.0/"
	 x="0px" y="0px" width="500px" height="500px" viewBox="-62.5 0 500 500" enable-background="new -62.5 0 500 500"
	 xml:space="preserve">
<defs>
</defs>
<path fill="#FFFFFF" d="M281.25,242.188v27.344c0,6.445-5.273,11.719-11.719,11.719H105.469c-6.445,0-11.719-5.273-11.719-11.719
	v-27.344c0-6.445,5.273-11.719,11.719-11.719h164.063C275.977,230.469,281.25,235.742,281.25,242.188z M269.531,312.5H105.469
	c-6.445,0-11.719,5.273-11.719,11.719v27.344c0,6.445,5.273,11.719,11.719,11.719h164.063c6.445,0,11.719-5.273,11.719-11.719
	v-27.344C281.25,317.773,275.977,312.5,269.531,312.5z M375,128.809v324.316C375,479.004,354.004,500,328.125,500H46.875
	C20.996,500,0,479.004,0,453.125V46.875C0,20.996,20.996,0,46.875,0h199.316c12.402,0,24.316,4.98,33.105,13.77l81.934,81.934
	C370.02,104.395,375,116.406,375,128.809z M250,50.684V125h74.316L250,50.684z M328.125,453.125v-281.25H226.563
	c-12.988,0-23.438-10.449-23.438-23.438V46.875H46.875v406.25H328.125z"/>
</svg>
