<?xml version="1.0" encoding="utf-8"?>
<!-- Generator: Adobe Illustrator 15.1.0, SVG Export Plug-In  -->
<!DOCTYPE svg PUBLIC "-//W3C//DTD SVG 1.1//EN" "http://www.w3.org/Graphics/SVG/1.1/DTD/svg11.dtd" [
	<!ENTITY ns_flows "http://ns.adobe.com/Flows/1.0/">
]>
<svg version="1.1"
	 xmlns="http://www.w3.org/2000/svg" xmlns:xlink="http://www.w3.org/1999/xlink" xmlns:a="http://ns.adobe.com/AdobeSVGViewerExtensions/3.0/"
	 x="0px" y="0px" width="500px" height="500px" viewBox="-31.25 0 500 500" enable-background="new -31.25 0 500 500"
	 xml:space="preserve">
<defs>
</defs>
<path fill="#555555" d="M429.092,353.799c-18.867-20.273-54.17-50.771-54.17-150.674c0-75.879-53.203-136.621-124.941-151.523V31.25
	c0-17.256-13.984-31.25-31.23-31.25s-31.23,13.994-31.23,31.25v20.352C115.782,66.504,62.579,127.246,62.579,203.125
	c0,99.902-35.303,130.4-54.17,150.674C2.549,360.098-0.048,367.627,0,375c0.107,16.016,12.676,31.25,31.348,31.25h374.805
	c18.672,0,31.25-15.234,31.348-31.25C437.549,367.627,434.952,360.088,429.092,353.799L429.092,353.799z M65.948,359.375
	c20.723-27.314,43.379-72.588,43.486-155.684c0-0.195-0.059-0.371-0.059-0.566c0-60.41,48.965-109.375,109.375-109.375
	s109.375,48.965,109.375,109.375c0,0.195-0.059,0.371-0.059,0.566c0.107,83.105,22.764,128.379,43.486,155.684H65.948z M218.75,500
	c34.492,0,62.471-27.979,62.471-62.5H156.28C156.28,472.021,184.258,500,218.75,500z"/>
</svg>
