<?xml version="1.0" encoding="utf-8"?>
<!-- Generator: Adobe Illustrator 15.1.0, SVG Export Plug-In . SVG Version: 6.00 Build 0)  -->
<!DOCTYPE svg PUBLIC "-//W3C//DTD SVG 1.1//EN" "http://www.w3.org/Graphics/SVG/1.1/DTD/svg11.dtd">
<svg version="1.1" id="Layer_1" focusable="false" xmlns="http://www.w3.org/2000/svg" xmlns:xlink="http://www.w3.org/1999/xlink"
	 x="0px" y="0px" width="500px" height="500px" viewBox="0 0 500 500" enable-background="new 0 0 500 500" xml:space="preserve">
<path fill="#606060" d="M238.951,307.924l-90.514,90.514l32.15,30.302c14.766,14.766,4.309,40.011-16.572,40.011H54.641
	c-12.944,0-23.391-10.493-23.391-23.438V335.938c0-20.881,25.198-31.338,39.963-16.573l30.35,32.198l90.514-90.514
	c6.102-6.102,15.995-6.102,22.097,0l24.778,24.778C245.054,291.929,245.054,301.821,238.951,307.924z M261.049,192.076
	l90.514-90.514l-32.15-30.302c-14.766-14.766-4.309-40.011,16.572-40.011h109.375c12.944,0,23.391,10.493,23.391,23.438v109.375
	c0,20.881-25.198,31.338-39.963,16.573l-30.35-32.198l-90.514,90.514c-6.102,6.102-15.995,6.102-22.097,0l-24.778-24.778
	C254.946,208.071,254.946,198.179,261.049,192.076L261.049,192.076z"/>
</svg>
