<?xml version="1.0" encoding="utf-8"?>
<!-- Generator: Adobe Illustrator 15.1.0, SVG Export Plug-In  -->
<!DOCTYPE svg PUBLIC "-//W3C//DTD SVG 1.1//EN" "http://www.w3.org/Graphics/SVG/1.1/DTD/svg11.dtd" [
	<!ENTITY ns_flows "http://ns.adobe.com/Flows/1.0/">
]>
<svg version="1.1"
	 xmlns="http://www.w3.org/2000/svg" xmlns:xlink="http://www.w3.org/1999/xlink" xmlns:a="http://ns.adobe.com/AdobeSVGViewerExtensions/3.0/"
	 x="0px" y="0px" width="500px" height="500px" viewBox="0.065 -31.25 500 500" enable-background="new 0.065 -31.25 500 500"
	 xml:space="preserve">
<defs>
</defs>
<path fill="#555555" d="M140.69,171.875c-17.285,0-31.25,13.965-31.25,31.25s13.965,31.25,31.25,31.25s31.25-13.965,31.25-31.25
	S157.975,171.875,140.69,171.875z M250.065,171.875c-17.285,0-31.25,13.965-31.25,31.25s13.965,31.25,31.25,31.25
	s31.25-13.965,31.25-31.25S267.35,171.875,250.065,171.875z M359.44,171.875c-17.285,0-31.25,13.965-31.25,31.25
	s13.965,31.25,31.25,31.25s31.25-13.965,31.25-31.25S376.725,171.875,359.44,171.875z M250.065,0c-138.086,0-250,90.918-250,203.125
	c0,46.484,19.434,89.063,51.66,123.34c-14.551,38.477-44.824,71.094-45.313,71.484c-6.445,6.836-8.203,16.797-4.492,25.391
	s12.207,14.16,21.582,14.16c60.059,0,107.422-25.098,135.84-45.215c28.223,8.887,58.691,13.965,90.723,13.965
	c138.086,0,250-90.918,250-203.125S388.151,0,250.065,0z M250.065,359.375c-26.074,0-51.855-4.004-76.563-11.816l-22.168-7.031
	l-19.043,13.477c-13.965,9.863-33.105,20.898-56.152,28.32c7.129-11.816,14.063-25.098,19.434-39.258l10.352-27.441l-20.117-21.289
	c-17.676-18.848-38.867-50-38.867-91.211c0-86.133,91.113-156.25,203.125-156.25s203.125,70.117,203.125,156.25
	S362.077,359.375,250.065,359.375z"/>
</svg>
