<?xml version="1.0" encoding="utf-8"?>
<!-- Generator: Adobe Illustrator 15.1.0, SVG Export Plug-In  -->
<!DOCTYPE svg PUBLIC "-//W3C//DTD SVG 1.1//EN" "http://www.w3.org/Graphics/SVG/1.1/DTD/svg11.dtd" [
	<!ENTITY ns_flows "http://ns.adobe.com/Flows/1.0/">
]>
<svg version="1.1"
	 xmlns="http://www.w3.org/2000/svg" xmlns:xlink="http://www.w3.org/1999/xlink" xmlns:a="http://ns.adobe.com/AdobeSVGViewerExtensions/3.0/"
	 x="0px" y="0px" width="78px" height="84px" viewBox="0 0 78 84" enable-background="new 0 0 78 84" xml:space="preserve">
<defs>
</defs>
<path fill="#898989" d="M20.851,83.455c-4.734,0.573-9.686-0.655-13.726-3.824c-8.081-6.334-9.5-18.063-3.165-26.145l33.853-43.173
	c0.917-1.17,2.609-1.375,3.779-0.458c1.17,0.918,1.375,2.609,0.457,3.779L8.196,56.807c-4.503,5.745-3.495,14.083,2.25,18.587
	c5.744,4.505,14.083,3.496,18.586-2.249l41.565-53.008c1.505-1.919,2.172-4.31,1.879-6.729c-0.293-2.42-1.512-4.581-3.43-6.085
	c-3.96-3.105-9.708-2.411-12.815,1.551L26.719,46.511c-0.814,1.039-1.176,2.334-1.017,3.645s0.818,2.482,1.857,3.295
	c1.039,0.814,2.333,1.176,3.643,1.017c1.312-0.158,2.482-0.817,3.297-1.856l30.697-39.15c0.918-1.171,2.609-1.375,3.779-0.458
	c1.17,0.917,1.375,2.609,0.457,3.779l-30.697,39.15c-1.702,2.172-4.147,3.55-6.885,3.881c-0.001,0-0.001,0-0.001,0
	c-2.738,0.332-5.441-0.423-7.611-2.124c-2.171-1.702-3.549-4.148-3.88-6.887c-0.332-2.737,0.424-5.441,2.125-7.613L51.995,5.552
	c4.937-6.297,14.077-7.402,20.372-2.467c3.051,2.392,4.988,5.829,5.454,9.676c0.466,3.849-0.595,7.647-2.988,10.698L33.268,76.466
	C30.101,80.507,25.585,82.881,20.851,83.455z"/>
</svg>
