<?xml version="1.0" encoding="utf-8"?>
<!-- Generator: Adobe Illustrator 15.1.0, SVG Export Plug-In  -->
<!DOCTYPE svg PUBLIC "-//W3C//DTD SVG 1.1//EN" "http://www.w3.org/Graphics/SVG/1.1/DTD/svg11.dtd" [
	<!ENTITY ns_flows "http://ns.adobe.com/Flows/1.0/">
]>
<svg version="1.1"
	 xmlns="http://www.w3.org/2000/svg" xmlns:xlink="http://www.w3.org/1999/xlink" xmlns:a="http://ns.adobe.com/AdobeSVGViewerExtensions/3.0/"
	 x="0px" y="0px" width="500px" height="500px" viewBox="0 0.003 500 500" enable-background="new 0 0.003 500 500"
	 xml:space="preserve">
<defs>
</defs>
<path fill="#FFFFFF" d="M171.875,210.94h156.25c8.633,0,15.625-6.992,15.625-15.625V179.69c0-8.633-6.992-15.625-15.625-15.625
	h-156.25c-8.633,0-15.625,6.992-15.625,15.625v15.625C156.25,203.948,163.242,210.94,171.875,210.94z M156.25,289.065
	c0,8.633,6.992,15.625,15.625,15.625h156.25c8.633,0,15.625-6.992,15.625-15.625V273.44c0-8.633-6.992-15.625-15.625-15.625h-156.25
	c-8.633,0-15.625,6.992-15.625,15.625V289.065z M250,407.356c-16.035,0-32.07-4.941-45.762-14.834L0,244.983v208.145
	c0,25.889,20.986,46.875,46.875,46.875h406.25c25.889,0,46.875-20.986,46.875-46.875V244.983L295.762,392.522
	C282.07,402.405,266.035,407.356,250,407.356L250,407.356z M482.041,159.134c-8.643-6.777-16.836-13.154-28.916-22.275V93.753
	c0-25.889-20.986-46.875-46.875-46.875h-75.732c-2.969-2.148-5.732-4.16-8.828-6.406C305.273,28.489,272.656-0.339,250,0.003
	c-22.656-0.342-55.264,28.486-71.689,40.469c-3.096,2.246-5.859,4.258-8.828,6.406H93.75c-25.889,0-46.875,20.986-46.875,46.875
	v43.105c-12.08,9.111-20.273,15.498-28.916,22.275C6.624,168.017,0.002,181.618,0,196.019v10.4l93.75,67.725V93.753h312.5v180.391
	L500,206.419v-10.4C500,181.624,493.379,168.021,482.041,159.134z"/>
</svg>
