<?xml version="1.0" encoding="utf-8"?>
<!-- Generator: Adobe Illustrator 15.1.0, SVG Export Plug-In  -->
<!DOCTYPE svg PUBLIC "-//W3C//DTD SVG 1.1//EN" "http://www.w3.org/Graphics/SVG/1.1/DTD/svg11.dtd" [
	<!ENTITY ns_flows "http://ns.adobe.com/Flows/1.0/">
]>
<svg version="1.1"
	 xmlns="http://www.w3.org/2000/svg" xmlns:xlink="http://www.w3.org/1999/xlink" xmlns:a="http://ns.adobe.com/AdobeSVGViewerExtensions/3.0/"
	 x="0px" y="0px" width="500px" height="500px" viewBox="0 -62.5 500 500" enable-background="new 0 -62.5 500 500"
	 xml:space="preserve">
<defs>
</defs>
<path fill="#555555" d="M453.125,0H46.875C20.986,0,0,20.986,0,46.875v281.25C0,354.014,20.986,375,46.875,375h406.25
	C479.014,375,500,354.014,500,328.125V46.875C500,20.986,479.014,0,453.125,0z M453.125,46.875v39.849
	c-21.896,17.831-56.805,45.558-131.433,103.994c-16.446,12.937-49.024,44.016-71.692,43.653
	c-22.664,0.366-55.253-30.722-71.692-43.653C103.691,132.29,68.774,104.558,46.875,86.724V46.875H453.125z M46.875,328.125V146.873
	c22.377,17.823,54.11,42.834,102.479,80.709c21.345,16.802,58.725,53.893,100.646,53.667c41.716,0.226,78.622-36.327,100.638-53.659
	c48.367-37.874,80.109-62.892,102.487-80.716v181.251H46.875z"/>
</svg>
