<?xml version="1.0" encoding="utf-8"?>
<!-- Generator: Adobe Illustrator 15.1.0, SVG Export Plug-In  -->
<!DOCTYPE svg PUBLIC "-//W3C//DTD SVG 1.1//EN" "http://www.w3.org/Graphics/SVG/1.1/DTD/svg11.dtd" [
	<!ENTITY ns_flows "http://ns.adobe.com/Flows/1.0/">
]>
<svg version="1.1"
	 xmlns="http://www.w3.org/2000/svg" xmlns:xlink="http://www.w3.org/1999/xlink" xmlns:a="http://ns.adobe.com/AdobeSVGViewerExtensions/3.0/"
	 x="0px" y="0px" width="500px" height="500px" viewBox="-29.063 -34.734 500 500" enable-background="new -29.063 -34.734 500 500"
	 xml:space="preserve">
<defs>
</defs>
<rect x="218.208" y="41.916" fill="#FFFFFF" width="223.666" height="338.667"/>
<rect x="251.511" y="86.484" fill="#439467" width="62.188" height="38.688"/>
<rect x="329.636" y="86.484" fill="#439467" width="69.813" height="38.688"/>
<rect x="251.511" y="139.195" fill="#439467" width="62.188" height="38.688"/>
<rect x="329.636" y="139.195" fill="#439467" width="69.813" height="38.688"/>
<rect x="251.511" y="191.906" fill="#439467" width="62.188" height="38.688"/>
<rect x="329.636" y="191.906" fill="#439467" width="69.813" height="38.688"/>
<rect x="251.511" y="244.617" fill="#439467" width="62.188" height="38.688"/>
<rect x="329.636" y="244.617" fill="#439467" width="69.813" height="38.688"/>
<rect x="251.511" y="297.328" fill="#439467" width="62.188" height="38.688"/>
<rect x="329.636" y="297.328" fill="#439467" width="69.813" height="38.688"/>
<polygon fill="#FFFFFF" points="0,47.5 0,374 251.5,422.5 251.5,0 "/>
<polygon fill="#439467" points="72.912,143.646 103.984,141.677 124.642,194.41 126.162,188.813 147.912,138.312 181.328,136.479 
	142.235,210.715 182.172,286.021 147.063,283.771 122.766,229.364 99.703,280.146 69.328,278.021 105.523,210.635 "/>
</svg>
