<?xml version="1.0" encoding="utf-8"?>
<!-- Generator: Adobe Illustrator 15.1.0, SVG Export Plug-In  -->
<!DOCTYPE svg PUBLIC "-//W3C//DTD SVG 1.1//EN" "http://www.w3.org/Graphics/SVG/1.1/DTD/svg11.dtd" [
	<!ENTITY ns_flows "http://ns.adobe.com/Flows/1.0/">
]>
<svg version="1.1"
	 xmlns="http://www.w3.org/2000/svg" xmlns:xlink="http://www.w3.org/1999/xlink" xmlns:a="http://ns.adobe.com/AdobeSVGViewerExtensions/3.0/"
	 x="0px" y="0px" width="500px" height="500px" viewBox="-18.207 -7.909 500 500" enable-background="new -18.207 -7.909 500 500"
	 xml:space="preserve">
<defs>
</defs>
<path fill="#777777" d="M457.77,300.392l-41.602-24.023c4.199-22.656,4.199-45.898,0-68.555l41.602-24.023
	c4.785-2.734,6.934-8.398,5.371-13.672c-10.84-34.766-29.297-66.211-53.418-92.383c-3.711-4.004-9.766-4.98-14.453-2.246
	l-41.602,24.023c-17.48-15.039-37.598-26.66-59.375-34.277V17.286c0-5.469-3.809-10.254-9.18-11.426
	c-35.84-8.008-72.559-7.617-106.641,0c-5.371,1.172-9.18,5.957-9.18,11.426v48.047c-21.68,7.715-41.797,19.336-59.375,34.277
	L68.414,75.587c-4.785-2.734-10.742-1.855-14.453,2.246c-24.121,26.074-42.578,57.52-53.418,92.383
	c-1.66,5.273,0.586,10.938,5.371,13.672l41.602,24.023c-4.199,22.656-4.199,45.898,0,68.555L5.914,300.489
	c-4.785,2.734-6.934,8.398-5.371,13.672c10.84,34.766,29.297,66.211,53.418,92.383c3.711,4.004,9.766,4.98,14.453,2.246
	l41.602-24.023c17.48,15.039,37.598,26.66,59.375,34.277v48.047c0,5.469,3.809,10.254,9.18,11.426
	c35.84,8.008,72.559,7.617,106.641,0c5.371-1.172,9.18-5.957,9.18-11.426v-48.047c21.68-7.715,41.797-19.336,59.375-34.277
	l41.602,24.023c4.785,2.734,10.742,1.855,14.453-2.246c24.121-26.074,42.578-57.52,53.418-92.383
	C464.703,308.79,462.555,303.126,457.77,300.392z M231.793,320.216c-43.066,0-78.125-35.059-78.125-78.125
	s35.059-78.125,78.125-78.125s78.125,35.059,78.125,78.125S274.859,320.216,231.793,320.216z"/>
</svg>
