<?xml version="1.0" encoding="utf-8"?>
<!-- Generator: Adobe Illustrator 15.1.0, SVG Export Plug-In  -->
<!DOCTYPE svg PUBLIC "-//W3C//DTD SVG 1.1//EN" "http://www.w3.org/Graphics/SVG/1.1/DTD/svg11.dtd" [
	<!ENTITY ns_flows "http://ns.adobe.com/Flows/1.0/">
]>
<svg version="1.1"
	 xmlns="http://www.w3.org/2000/svg" xmlns:xlink="http://www.w3.org/1999/xlink" xmlns:a="http://ns.adobe.com/AdobeSVGViewerExtensions/3.0/"
	 x="0px" y="0px" width="120px" height="34px" viewBox="-2.275 -1.045 120 34" enable-background="new -2.275 -1.045 120 34"
	 xml:space="preserve">
<defs>
</defs>
<rect x="14.625" y="8.085" fill="#009157" width="0.745" height="1.941"/>
<rect x="15.845" y="8.085" fill="#009157" width="0.745" height="1.941"/>
<rect x="13.407" y="8.085" fill="#009157" width="0.745" height="1.941"/>
<path fill="#009157" d="M21.692,17.106c0-2.393-1.909-4.341-4.256-4.341s-4.256,1.948-4.256,4.341v9.429H8.752v-5.787
	c-3.343,3.429-4.861,6.89-3.588,9.095c2.006,3.476,10.187,2.508,18.271-2.159c0.643-0.372,1.266-0.755,1.867-1.148h-3.61V17.106z
	 M20.801,26.535h-0.728v-9.429c0-1.483-1.183-2.69-2.638-2.69c-1.455,0-2.637,1.207-2.637,2.69v9.429h-0.728v-9.429
	c0-1.893,1.51-3.432,3.365-3.432c1.855,0,3.366,1.539,3.366,3.432V26.535z"/>
<rect x="17.063" y="8.085" fill="#009157" width="0.746" height="1.941"/>
<rect x="20.72" y="8.085" fill="#009157" width="0.745" height="1.941"/>
<rect x="18.282" y="8.085" fill="#009157" width="0.745" height="1.941"/>
<path fill="#009157" d="M34.441,12.939c-1.146-1.986-4.31-2.521-8.319-1.744c2.289-2.343,3.724-4.703,4-6.666L26.83,4.979
	c-0.011-0.08-0.025-0.16-0.042-0.239L30.169,4c0.021-0.646-0.098-1.243-0.369-1.771l-3.295,1.736
	c-0.038-0.072-0.079-0.142-0.122-0.21l3.134-1.984c-0.35-0.469-0.83-0.842-1.418-1.123l-2.246,2.476
	c-0.06-0.055-0.123-0.106-0.187-0.155l1.947-2.523c-0.492-0.177-1.044-0.301-1.647-0.372l-1.014,2.483
	c-0.075-0.031-0.151-0.059-0.229-0.083l0.778-2.443C25.028-0.005,24.526-0.009,24,0.017l-0.09,2.314
	c-0.039-0.002-0.078-0.004-0.118-0.004c-0.042,0-0.083,0.002-0.125,0.004l-0.093-2.287c-0.465,0.036-0.947,0.092-1.444,0.171
	l0.725,2.259c-0.077,0.025-0.154,0.053-0.228,0.083l-0.932-2.269c-0.517,0.094-1.049,0.208-1.593,0.347l1.812,2.337
	c-0.064,0.05-0.126,0.101-0.187,0.156l-2.146-2.357c-0.679,0.186-1.375,0.405-2.083,0.657l3.701,2.332
	c-0.043,0.068-0.084,0.139-0.122,0.21l-4.323-2.266c-1.077,0.412-2.177,0.898-3.286,1.454l7.328,1.587
	c-0.017,0.079-0.03,0.159-0.041,0.239l-8.566-1.153c-0.245,0.135-0.49,0.272-0.735,0.414c-0.067,0.038-0.134,0.078-0.2,0.117
	c0.496,0.083,0.874,0.513,0.874,1.031c0,0.578-0.469,1.048-1.047,1.048c-0.579,0-1.048-0.47-1.048-1.048
	c0-0.111,0.018-0.218,0.05-0.319C2.822,9.667-1.442,15.715,0.448,18.988c1.145,1.983,4.302,2.521,8.304,1.747v-9.537h4.655h8.059
	h4.654v14.787C32.571,21.523,36.214,16.011,34.441,12.939z M23.792,4.347c0.578,0,1.047,0.469,1.047,1.047s-0.469,1.048-1.047,1.048
	c-0.579,0-1.047-0.47-1.047-1.048S23.214,4.347,23.792,4.347z M26.12,7.559v0.646v2.35h-4.654h-8.059H8.752v-2.35V7.559V6.614h4.655
	v0.944h8.059V6.614h4.654V7.559z"/>
<rect x="19.501" y="8.085" fill="#009157" width="0.745" height="1.941"/>
<path fill="#009157" d="M8.752,20.735v0.013c0.005-0.005,0.01-0.011,0.015-0.016C8.762,20.734,8.757,20.735,8.752,20.735z"/>
<text transform="matrix(1 0 0 1 40.8237 21.7529)" font-family="'NanumSquareOTFB-KSCpc-EUC-H'" font-size="21.1246">서대문구</text>
</svg>
